# Blender v2.79 (sub 0) OBJ File: 'stone2.blend'
# www.blender.org
mtllib stone2.mtl
o Cube
v 1.000000 -1.000000 -0.497500
v 0.497500 -1.000000 -0.497500
v 0.402888 -0.879487 -1.218922
v 0.905388 -0.879487 -1.218922
v 1.000000 -1.000000 0.497500
v 0.915517 -0.892389 1.214506
v 0.413017 -0.892389 1.214506
v 0.497500 -1.000000 0.497500
v -0.366761 -0.892389 1.214506
v -1.150497 -0.757049 1.077766
v -1.281237 -0.864660 0.360760
v -0.497500 -1.000000 0.497500
v -0.351085 -0.879487 -1.218922
v -0.497500 -1.000000 -0.497500
v -1.281236 -0.864660 -0.363560
v -1.134822 -0.744147 -1.084982
v 1.000000 1.000000 -0.497499
v 0.905389 0.879487 -1.218922
v 0.402889 0.879487 -1.218922
v 0.497500 1.000000 -0.497500
v 1.000000 1.000000 0.497501
v 0.497500 1.000000 0.497500
v 0.413017 0.892389 1.214506
v 0.915517 0.892389 1.214506
v -0.366761 0.892389 1.214506
v -0.497500 1.000000 0.497500
v -1.281237 0.864660 0.360760
v -1.150498 0.757049 1.077766
v -0.351085 0.879487 -1.218922
v -1.134822 0.744147 -1.084982
v -1.281237 0.864660 -0.363560
v -0.497500 1.000000 -0.497500
v 1.299987 -0.875333 -0.374122
v 1.000000 -1.000000 -0.497500
v 0.905388 -0.879487 -1.218922
v 1.205375 -0.754820 -1.095544
v 1.299987 -0.875333 0.371544
v 1.215504 -0.767722 1.088549
v 0.915517 -0.892389 1.214506
v 1.000000 -1.000000 0.497500
v 1.299987 0.875333 -0.374121
v 1.205375 0.754820 -1.095544
v 0.905389 0.879487 -1.218922
v 1.000000 1.000000 -0.497499
v 1.215503 0.767722 1.088550
v 1.299986 0.875333 0.371544
v 1.000000 1.000000 0.497501
v 0.915517 0.892389 1.214506
v 1.893990 -0.628479 -0.379156
v 1.742656 -0.599585 -0.856755
v 2.042642 -0.221752 -0.733377
v 2.193977 -0.250646 -0.255778
v 1.893990 -0.628479 0.371472
v 2.193977 -0.250646 0.245515
v 2.031516 -0.222811 0.712396
v 1.731529 -0.600644 0.838353
v 2.042643 0.158109 -0.733377
v 1.742656 0.535941 -0.856755
v 1.893990 0.628479 -0.379155
v 2.193977 0.250646 -0.255778
v 2.031516 0.170051 0.712397
v 2.193977 0.250646 0.245515
v 1.893990 0.628479 0.371472
v 1.731529 0.547883 0.838353
v -1.838113 -0.596673 0.360681
v -1.647489 -0.607987 0.821381
v -1.928726 -0.240827 0.684641
v -2.119349 -0.229513 0.223942
v -1.639407 -0.576916 -0.827283
v -1.838113 -0.596673 -0.369025
v -2.119350 -0.229513 -0.235085
v -1.920644 -0.209756 -0.693342
v -1.928726 0.118911 0.684641
v -1.647489 0.486071 0.821380
v -1.838113 0.596673 0.360681
v -2.119349 0.229513 0.223942
v -1.639408 0.505237 -0.827282
v -1.920644 0.138077 -0.693342
v -2.119349 0.229513 -0.235085
v -1.838113 0.596673 -0.369025
v 0.748233 -0.679309 1.639249
v 0.663750 -0.284420 1.853755
v 0.376472 -0.284420 1.853755
v 0.460955 -0.679309 1.639249
v -0.323106 -0.679308 1.639249
v -0.192367 -0.284420 1.853755
v -0.700997 -0.268004 1.731388
v -0.831736 -0.662893 1.516882
v 0.748232 0.679308 1.639249
v 0.460955 0.679308 1.639249
v 0.376472 0.284419 1.853755
v 0.663750 0.284419 1.853755
v -0.700997 0.146088 1.731388
v -0.192367 0.284419 1.853754
v -0.323106 0.679308 1.639249
v -0.831736 0.540977 1.516882
v 0.885759 -0.239528 1.727008
v 0.663750 -0.284420 1.853755
v 0.748233 -0.679308 1.639249
v 0.970242 -0.634417 1.512502
v 0.970241 0.581656 1.512503
v 0.748232 0.679308 1.639249
v 0.663750 0.284419 1.853755
v 0.885759 0.186767 1.727008
v 1.709828 -0.276125 1.135575
v 1.325358 -0.293181 1.476037
v 1.487819 -0.465751 1.262321
v 1.709827 0.118894 1.135575
v 1.487819 0.361280 1.262322
v 1.325358 0.135950 1.476037
v -1.551272 -0.362518 1.137844
v -1.329920 -0.511464 1.260211
v -1.139296 -0.390247 1.489090
v -1.551272 -0.000804 1.137844
v -1.139296 0.026925 1.489090
v -1.329920 0.270058 1.260211
v 0.456574 -0.640858 -1.652409
v 0.361962 -0.258872 -1.871331
v 0.623436 -0.258872 -1.871331
v 0.718047 -0.640858 -1.652409
v -0.792615 -0.606274 -1.525985
v -0.646201 -0.224287 -1.744907
v -0.155782 -0.258872 -1.871332
v -0.302196 -0.640858 -1.652410
v 0.623436 0.258872 -1.871331
v 0.361962 0.258872 -1.871331
v 0.456574 0.640859 -1.652409
v 0.718048 0.640859 -1.652409
v -0.646201 0.152609 -1.744907
v -0.792616 0.534596 -1.525985
v -0.302196 0.640859 -1.652410
v -0.155782 0.258872 -1.871331
v 0.866700 -0.225823 -1.753465
v 0.961312 -0.607810 -1.534543
v 0.718047 -0.640858 -1.652409
v 0.623436 -0.258872 -1.871331
v 0.866700 0.162180 -1.753465
v 0.623436 0.258872 -1.871331
v 0.718048 0.640859 -1.652409
v 0.961312 0.544167 -1.534543
v 1.742986 -0.285971 -1.177778
v 1.499721 -0.450753 -1.295644
v 1.348387 -0.290125 -1.520078
v 1.742986 0.096306 -1.177778
v 1.348387 0.100461 -1.520078
v 1.499722 0.324732 -1.295644
v -1.298241 -0.437038 -1.268136
v -1.527188 -0.281827 -1.141711
v -1.099537 -0.296654 -1.494573
v -1.298242 0.295108 -1.268136
v -1.099537 0.083046 -1.494573
v -1.527188 0.068219 -1.141711
vt 0.260890 0.603838
vt 0.185730 0.619662
vt 0.178237 0.568264
vt 0.258178 0.550965
vt 0.835823 0.841190
vt 0.836838 0.841399
vt 0.822644 0.893625
vt 0.821754 0.893454
vt 0.796348 0.770257
vt 0.697495 0.769113
vt 0.699614 0.670959
vt 0.798297 0.674032
vt 0.569449 0.807893
vt 0.630195 0.829508
vt 0.659175 0.884769
vt 0.592562 0.869827
vt 0.094132 0.852846
vt 0.153321 0.865604
vt 0.193916 0.905797
vt 0.132672 0.897593
vt 0.710538 0.842629
vt 0.786567 0.843477
vt 0.794205 0.895332
vt 0.713533 0.893931
vt 0.842813 0.605011
vt 0.841754 0.605155
vt 0.831172 0.554886
vt 0.832073 0.554793
vt 0.361054 0.831779
vt 0.362047 0.831719
vt 0.364702 0.886312
vt 0.363731 0.884411
vt 0.936081 0.638043
vt 0.876625 0.614614
vt 0.858997 0.561780
vt 0.922886 0.582734
vt 0.311390 0.595874
vt 0.310355 0.596291
vt 0.286082 0.547193
vt 0.286955 0.546844
vt 0.712287 0.209596
vt 0.669202 0.229910
vt 0.631491 0.184307
vt 0.665454 0.154839
vt 0.409045 0.607115
vt 0.346884 0.597074
vt 0.314881 0.551283
vt 0.380586 0.559498
vt 0.870813 0.833688
vt 0.932648 0.814147
vt 0.918081 0.871002
vt 0.851637 0.888217
vt 0.505623 0.493511
vt 0.509739 0.559782
vt 0.440044 0.558133
vt 0.446078 0.494989
vt 0.224318 0.400233
vt 0.261433 0.382227
vt 0.304482 0.424175
vt 0.275160 0.451543
vt 0.619514 0.682003
vt 0.618025 0.755148
vt 0.554396 0.756369
vt 0.555753 0.680016
vt 0.633576 0.609010
vt 0.570525 0.627030
vt 0.593229 0.565372
vt 0.661773 0.555012
vt 0.845934 0.770075
vt 0.848569 0.676328
vt 0.849949 0.676291
vt 0.847366 0.770185
vt 0.545027 0.556933
vt 0.535489 0.490613
vt 0.536896 0.490804
vt 0.546122 0.556767
vt 0.489330 0.062155
vt 0.488143 0.121190
vt 0.435574 0.124083
vt 0.426925 0.066415
vt 0.391878 0.484273
vt 0.378986 0.531183
vt 0.324321 0.496091
vt 0.348310 0.454539
vt 0.577529 0.532926
vt 0.560086 0.484811
vt 0.602843 0.457638
vt 0.630538 0.498593
vt 0.879662 0.760088
vt 0.881815 0.687794
vt 0.946882 0.688637
vt 0.944844 0.763667
vt 0.111425 0.723849
vt 0.126650 0.795341
vt 0.064182 0.809761
vt 0.048787 0.734410
vt 0.686716 0.281834
vt 0.745554 0.272339
vt 0.745554 0.338763
vt 0.690164 0.332372
vt 0.108588 0.648072
vt 0.058076 0.683258
vt 0.074229 0.623467
vt 0.129934 0.591845
vt 0.241612 0.338424
vt 0.192372 0.345232
vt 0.192737 0.289512
vt 0.240125 0.295846
vt 0.256162 0.249288
vt 0.219367 0.233162
vt 0.264630 0.174560
vt 0.295814 0.201879
vt 0.514777 0.121899
vt 0.520942 0.063552
vt 0.522034 0.063658
vt 0.515924 0.121909
vt 0.369352 0.094645
vt 0.384049 0.135899
vt 0.338392 0.165089
vt 0.315500 0.129050
vt 0.542367 0.127509
vt 0.554588 0.082674
vt 0.614893 0.112469
vt 0.591224 0.152245
vt 0.676182 0.380177
vt 0.719544 0.398398
vt 0.678825 0.455127
vt 0.642437 0.424390
vt 0.385799 0.740382
vt 0.369859 0.668698
vt 0.433819 0.651971
vt 0.451194 0.726571
vt 0.235402 0.860748
vt 0.313599 0.844766
vt 0.331753 0.892415
vt 0.248259 0.908559
vt 0.284755 0.674812
vt 0.305419 0.770443
vt 0.207759 0.791755
vt 0.187080 0.694892
vt 0.792494 0.600958
vt 0.714083 0.598638
vt 0.718825 0.549850
vt 0.801347 0.551544
vt 0.395439 0.815128
vt 0.447801 0.778236
vt 0.442022 0.833846
vt 0.386266 0.871051
vt 0.334598 0.665284
vt 0.354454 0.758611
vt 0.335958 0.664913
vt 0.355902 0.758379
vt 0.462239 0.598999
vt 0.486810 0.649893
vt 0.500851 0.703846
vt 0.500851 0.761280
vt 0.987363 0.812995
vt 0.996824 0.755828
vt 0.991591 0.642403
vt 0.999852 0.700098
vt 0.040670 0.859999
vt 0.009413 0.808616
vt 0.000148 0.755648
vt 0.006196 0.696709
vt 0.513603 0.627519
vt 0.501146 0.690106
vt 0.513928 0.805814
vt 0.502052 0.745138
vt 0.365094 0.937933
vt 0.332434 0.944545
vt 0.268087 0.956490
vt 0.206551 0.955757
vt 0.796671 0.500498
vt 0.830819 0.504361
vt 0.662556 0.500491
vt 0.729001 0.498070
vt 0.400631 0.924823
vt 0.366115 0.937914
vt 0.831680 0.504362
vt 0.866505 0.508939
vt 0.476323 0.819484
vt 0.443728 0.872108
vt 0.963391 0.585864
vt 0.920998 0.541844
vt 0.099878 0.898037
vt 0.153915 0.926345
vt 0.549009 0.561340
vt 0.601452 0.520133
vt 0.239572 0.503094
vt 0.270597 0.498327
vt 0.122920 0.539866
vt 0.179401 0.515530
vt 0.817185 0.943460
vt 0.786014 0.945439
vt 0.661149 0.938515
vt 0.724301 0.945440
vt 0.306206 0.499931
vt 0.271432 0.498070
vt 0.854542 0.940631
vt 0.818117 0.943553
vt 0.415892 0.558745
vt 0.365643 0.527345
vt 0.958502 0.868911
vt 0.914317 0.911560
vt 0.042473 0.636410
vt 0.081501 0.586692
vt 0.602398 0.912003
vt 0.551855 0.868690
vn 0.0000 -0.8760 -0.4822
vn 0.0000 0.0000 1.0000
vn 0.0000 1.0000 0.0000
vn -0.5683 0.4795 -0.6686
vn -0.4768 -0.7214 0.5022
vn 0.0000 0.8760 -0.4822
vn 0.4419 -0.8046 0.3967
vn 0.5404 0.6099 0.5797
vn 0.8291 -0.0000 -0.5591
vn 0.4379 -0.7501 -0.4957
vn 0.5151 0.6253 -0.5862
vn -0.7684 0.0000 0.6400
vn -0.4336 0.9011 -0.0000
vn -0.5924 0.4648 0.6581
vn 0.0000 0.0000 -1.0000
vn -0.4838 0.0000 0.8752
vn 0.4958 0.0000 0.8684
vn 0.3838 0.9234 0.0000
vn -0.4336 -0.9011 -0.0000
vn 1.0000 0.0000 0.0000
vn -0.5099 -0.6243 -0.5918
vn -1.0000 -0.0000 0.0000
vn -0.7516 -0.0000 -0.6596
vn -0.4834 0.0000 -0.8754
vn 0.4360 0.0000 -0.8999
vn 0.7961 0.0000 0.6052
vn 0.3838 -0.9234 0.0000
vn -0.0000 -0.8938 0.4484
vn 0.0000 -1.0000 0.0000
vn -0.0000 0.8938 0.4484
vn 0.4776 -0.7202 0.5032
vn 0.0000 -0.9863 -0.1648
vn 0.0000 -0.9889 0.1484
vn -0.1979 -0.9634 0.1807
vn -0.1999 -0.9590 -0.2008
vn 0.0000 0.9863 -0.1648
vn -0.0000 0.9889 0.1484
vn -0.1979 0.9634 0.1807
vn -0.1999 0.9590 -0.2008
vn 0.4461 -0.8714 -0.2041
vn 0.4420 -0.8779 0.1839
vn 0.4461 0.8714 -0.2041
vn 0.4420 0.8779 0.1839
vn 0.7939 -0.5376 -0.2841
vn 0.7925 -0.5268 0.3072
vn 0.7862 0.5106 -0.3481
vn 0.7854 0.5035 0.3602
vn -0.8058 -0.4976 0.3212
vn -0.7983 -0.4777 -0.3668
vn -0.7865 0.4418 0.4315
vn -0.7857 0.4452 -0.4295
vn -0.0000 -0.4773 0.8787
vn -0.2261 -0.4061 0.8854
vn -0.0000 0.4773 0.8787
vn -0.3115 0.3719 0.8745
vn 0.5177 -0.3202 0.7934
vn 0.5684 0.2955 0.7679
vn 0.6439 -0.2771 0.7132
vn 0.6524 0.2180 0.7258
vn -0.6218 -0.3474 0.7019
vn -0.6442 0.1919 0.7404
vn -0.0000 -0.4972 -0.8676
vn -0.2549 -0.4054 -0.8779
vn 0.0000 0.4972 -0.8676
vn -0.3074 0.3817 -0.8717
vn 0.4460 -0.3593 -0.8197
vn 0.5142 0.3271 -0.7929
vn 0.6038 -0.3970 -0.6913
vn 0.6275 0.2969 -0.7198
vn -0.6116 -0.3090 -0.7283
vn -0.6261 0.2140 -0.7498
vn -0.6870 0.2999 -0.6619
vn -0.1702 -0.9854 -0.0000
vn 0.5389 0.6305 0.5585
vn -0.2096 -0.8605 -0.4642
vn -0.1702 0.9854 -0.0000
vn -0.6986 -0.3802 -0.6061
vn 0.7832 -0.6218 0.0000
vn 0.9533 0.0000 -0.3021
vn 0.9445 0.0000 0.3286
vn 0.7832 0.6218 0.0000
vn 0.3794 -0.9070 0.1829
vn 0.4205 0.8783 0.2273
vn 0.3632 -0.9125 -0.1882
vn 0.4116 0.8790 -0.2406
vn -0.7939 -0.6081 0.0000
vn -0.9240 -0.0000 0.3823
vn -0.9175 0.0000 -0.3978
vn -0.7939 0.6081 0.0000
vn -0.3999 -0.8982 0.1826
vn -0.4151 -0.8812 -0.2262
vn -0.4906 0.8230 0.2864
vn -0.4675 0.8361 -0.2870
vn -0.2339 0.0000 0.9723
vn 0.0000 -0.9701 0.2425
vn 0.6630 0.0000 0.7487
vn 0.4627 -0.3968 0.7927
vn 0.5101 0.3418 0.7893
vn -0.6488 0.0000 0.7610
vn -0.4382 -0.4130 0.7984
vn -0.5397 0.2800 0.7940
vn -0.1852 -0.8988 0.3974
vn -0.2753 0.8099 0.5179
vn -0.7005 0.2864 0.6536
vn 0.7289 -0.4352 0.5284
vn 0.4813 -0.7045 0.5215
vn 0.7219 0.3691 0.5854
vn -0.7197 -0.4254 0.5487
vn -0.2496 0.0000 -0.9683
vn 0.6553 -0.0000 -0.7554
vn 0.4071 -0.4601 -0.7890
vn 0.4731 0.3869 -0.7915
vn -0.6364 0.0000 -0.7713
vn -0.4631 -0.3777 -0.8018
vn -0.5202 0.2979 -0.8004
vn 0.7131 0.4138 -0.5659
vn 0.5148 0.6316 -0.5798
vn 0.7158 -0.4999 -0.4876
vn -0.2613 0.8066 -0.5302
vn 0.4463 -0.7158 -0.5371
usemtl Material
s off
f 3/1/1 13/2/1 124/3/1 117/4/1
f 18/5/2 43/6/2 139/7/2 128/8/2
f 20/9/3 32/10/3 26/11/3 22/12/3
f 77/13/4 30/14/4 130/15/4 150/16/4
f 66/17/5 10/18/5 88/19/5 112/20/5
f 29/21/6 19/22/6 127/23/6 131/24/6
f 48/25/2 24/26/2 89/27/2 102/28/2
f 6/29/7 39/30/7 99/31/7 81/32/7
f 64/33/8 45/34/8 101/35/8 109/36/8
f 35/37/2 4/38/2 120/39/2 135/40/2
f 57/41/9 51/42/9 141/43/9 144/44/9
f 50/45/10 36/46/10 134/47/10 142/48/10
f 42/49/11 58/50/11 146/51/11 140/52/11
f 83/53/2 91/54/2 94/55/2 86/56/2
f 73/57/12 67/58/12 111/59/12 114/60/12
f 27/61/13 31/62/13 80/63/13 75/64/13
f 28/65/14 74/66/14 116/67/14 96/68/14
f 17/69/2 21/70/2 47/71/2 44/72/2
f 92/73/2 82/74/2 98/75/2 103/76/2
f 126/77/15 118/78/15 123/79/15 132/80/15
f 87/81/16 93/82/16 115/83/16 113/84/16
f 104/85/17 97/86/17 106/87/17 110/88/17
f 41/89/18 46/90/18 63/91/18 59/92/18
f 15/93/19 11/94/19 65/95/19 70/96/19
f 52/97/20 60/98/20 62/99/20 54/100/20
f 16/101/21 69/102/21 147/103/21 121/104/21
f 68/105/22 76/106/22 79/107/22 71/108/22
f 72/109/23 78/110/23 152/111/23 148/112/23
f 119/113/2 125/114/2 138/115/2 136/116/2
f 129/117/24 122/118/24 149/119/24 151/120/24
f 133/121/25 137/122/25 145/123/25 143/124/25
f 55/125/26 61/126/26 108/127/26 105/128/26
f 37/129/27 33/130/27 49/131/27 53/132/27
f 9/133/28 7/134/28 84/135/28 85/136/28
f 2/137/29 8/138/29 12/139/29 14/140/29
f 23/141/30 25/142/30 95/143/30 90/144/30
f 38/145/31 56/146/31 107/147/31 100/148/31
f 1/149/32 2/137/32 3/1/32 4/38/32
f 5/150/33 6/29/33 7/134/33 8/138/33
f 9/133/34 10/18/34 11/94/34 12/139/34
f 13/2/35 14/140/35 15/93/35 16/101/35
f 17/69/36 18/5/36 19/22/36 20/9/36
f 21/70/37 22/12/37 23/141/37 24/26/37
f 25/142/38 26/11/38 27/61/38 28/65/38
f 29/21/39 30/14/39 31/62/39 32/10/39
f 33/130/40 34/151/40 35/37/40 36/46/40
f 37/129/41 38/145/41 39/30/41 40/152/41
f 41/89/42 42/49/42 43/6/42 44/72/42
f 45/34/43 46/90/43 47/71/43 48/25/43
f 49/131/44 50/45/44 51/153/44 52/154/44
f 53/132/45 54/155/45 55/156/45 56/146/45
f 57/157/46 58/50/46 59/92/46 60/158/46
f 61/159/47 62/160/47 63/91/47 64/33/47
f 65/95/48 66/17/48 67/161/48 68/162/48
f 69/102/49 70/96/49 71/163/49 72/164/49
f 73/165/50 74/66/50 75/64/50 76/166/50
f 77/13/51 78/167/51 79/168/51 80/63/51
f 81/32/52 82/169/52 83/170/52 84/135/52
f 85/136/53 86/171/53 87/172/53 88/19/53
f 89/27/54 90/144/54 91/173/54 92/174/54
f 93/175/55 94/176/55 95/143/55 96/68/55
f 97/177/56 98/178/56 99/31/56 100/148/56
f 101/35/57 102/28/57 103/179/57 104/180/57
f 105/181/58 106/182/58 107/147/58
f 108/183/59 109/36/59 110/184/59
f 111/185/60 112/20/60 113/186/60
f 114/187/61 115/188/61 116/67/61
f 117/4/62 118/189/62 119/190/62 120/39/62
f 121/104/63 122/191/63 123/192/63 124/3/63
f 125/193/64 126/194/64 127/23/64 128/8/64
f 129/195/65 130/15/65 131/24/65 132/196/65
f 133/197/66 134/47/66 135/40/66 136/198/66
f 137/199/67 138/200/67 139/7/67 140/52/67
f 141/201/68 142/48/68 143/202/68
f 144/203/69 145/204/69 146/51/69
f 147/103/70 148/205/70 149/206/70
f 150/16/71 151/207/71 152/208/71
f 1/149/29 5/150/29 8/138/29 2/137/29
f 2/137/32 14/140/32 13/2/32 3/1/32
f 77/13/72 150/16/72 152/208/72 78/167/72
f 7/134/33 9/133/33 12/139/33 8/138/33
f 6/29/28 81/32/28 84/135/28 7/134/28
f 11/94/73 15/93/73 14/140/73 12/139/73
f 101/35/74 45/34/74 48/25/74 102/28/74
f 124/3/75 13/2/75 16/101/75 121/104/75
f 20/9/3 22/12/3 21/70/3 17/69/3
f 19/22/36 29/21/36 32/10/36 20/9/36
f 22/12/37 26/11/37 25/142/37 23/141/37
f 26/11/76 32/10/76 31/62/76 27/61/76
f 33/130/27 37/129/27 40/152/27 34/151/27
f 72/164/77 148/205/77 147/103/77 69/102/77
f 23/141/30 90/144/30 89/27/30 24/26/30
f 44/72/18 47/71/18 46/90/18 41/89/18
f 24/26/2 48/25/2 47/71/2 21/70/2
f 43/6/2 18/5/2 17/69/2 44/72/2
f 5/150/2 40/152/2 39/30/2 6/29/2
f 34/151/2 1/149/2 4/38/2 35/37/2
f 52/154/78 54/155/78 53/132/78 49/131/78
f 51/42/79 57/41/79 60/98/79 52/97/79
f 54/100/80 62/99/80 61/126/80 55/125/80
f 59/92/81 63/91/81 62/160/81 60/158/81
f 37/129/82 53/132/82 56/146/82 38/145/82
f 63/91/83 46/90/83 45/34/83 64/33/83
f 36/46/84 50/45/84 49/131/84 33/130/84
f 58/50/85 42/49/85 41/89/85 59/92/85
f 68/162/86 71/163/86 70/96/86 65/95/86
f 67/58/87 73/57/87 76/106/87 68/105/87
f 71/108/88 79/107/88 78/110/88 72/109/88
f 75/64/89 80/63/89 79/168/89 76/166/89
f 10/18/90 66/17/90 65/95/90 11/94/90
f 69/102/91 16/101/91 15/93/91 70/96/91
f 27/61/92 75/64/92 74/66/92 28/65/92
f 30/14/93 77/13/93 80/63/93 31/62/93
f 83/170/52 86/171/52 85/136/52 84/135/52
f 82/74/2 92/73/2 91/54/2 83/53/2
f 86/56/94 94/55/94 93/82/94 87/81/94
f 90/144/54 95/143/54 94/176/54 91/173/54
f 97/86/17 104/85/17 103/76/17 98/75/17
f 92/174/2 103/179/2 102/28/2 89/27/2
f 81/32/95 99/31/95 98/178/95 82/169/95
f 105/128/96 108/127/96 110/88/96 106/87/96
f 100/148/97 107/147/97 106/182/97 97/177/97
f 109/36/98 101/35/98 104/180/98 110/184/98
f 113/84/99 115/83/99 114/60/99 111/59/99
f 87/172/100 113/186/100 112/20/100 88/19/100
f 96/68/101 116/67/101 115/188/101 93/175/101
f 88/19/102 10/18/102 9/133/102 85/136/102
f 28/65/103 96/68/103 95/143/103 25/142/103
f 73/165/104 114/187/104 116/67/104 74/66/104
f 55/156/105 105/181/105 107/147/105 56/146/105
f 99/31/106 39/30/106 38/145/106 100/148/106
f 108/183/107 61/159/107 64/33/107 109/36/107
f 111/185/108 67/161/108 66/17/108 112/20/108
f 117/4/62 124/3/62 123/192/62 118/189/62
f 118/78/15 126/77/15 125/114/15 119/113/15
f 122/118/109 129/117/109 132/80/109 123/79/109
f 126/194/64 132/196/64 131/24/64 127/23/64
f 136/116/25 138/115/25 137/122/25 133/121/25
f 138/200/2 125/193/2 128/8/2 139/7/2
f 135/40/2 120/39/2 119/190/2 136/198/2
f 143/124/110 145/123/110 144/44/110 141/43/110
f 133/197/111 143/202/111 142/48/111 134/47/111
f 145/204/112 137/199/112 140/52/112 146/51/112
f 148/112/113 152/111/113 151/120/113 149/119/113
f 149/206/114 122/191/114 121/104/114 147/103/114
f 129/195/115 151/207/115 150/16/115 130/15/115
f 57/157/116 144/203/116 146/51/116 58/50/116
f 139/7/117 43/6/117 42/49/117 140/52/117
f 127/23/6 19/22/6 18/5/6 128/8/6
f 50/45/118 142/48/118 141/201/118 51/153/118
f 29/21/119 131/24/119 130/15/119 30/14/119
f 120/39/1 4/38/1 3/1/1 117/4/1
f 134/47/120 36/46/120 35/37/120 135/40/120
f 5/150/2 1/149/2 34/151/2 40/152/2
